<svg width="21" height="21" viewBox="0 0 21 21" fill="none" xmlns="http://www.w3.org/2000/svg">
<path d="M8.00016 8.83333C8.92064 8.83333 9.66683 8.08714 9.66683 7.16667C9.66683 6.24619 8.92064 5.5 8.00016 5.5C7.07969 5.5 6.3335 6.24619 6.3335 7.16667C6.3335 8.08714 7.07969 8.83333 8.00016 8.83333Z" stroke="#2F648E" stroke-width="1.5" stroke-linecap="round" stroke-linejoin="round"/>
<path d="M11.3332 2.16797H7.99984C3.83317 2.16797 2.1665 3.83464 2.1665 8.0013V13.0013C2.1665 17.168 3.83317 18.8346 7.99984 18.8346H12.9998C17.1665 18.8346 18.8332 17.168 18.8332 13.0013V8.83464" stroke="#2F648E" stroke-width="1.5" stroke-linecap="round" stroke-linejoin="round"/>
<path d="M15.5 7.16797V2.16797L17.1667 3.83464" stroke="#2F648E" stroke-width="1.5" stroke-linecap="round" stroke-linejoin="round"/>
<path d="M15.5002 2.16797L13.8335 3.83464" stroke="#2F648E" stroke-width="1.5" stroke-linecap="round" stroke-linejoin="round"/>
<path d="M2.7251 16.2898L6.83343 13.5315C7.49176 13.0898 8.44176 13.1398 9.03343 13.6482L9.30843 13.8898C9.95843 14.4482 11.0084 14.4482 11.6584 13.8898L15.1251 10.9148C15.7751 10.3565 16.8251 10.3565 17.4751 10.9148L18.8334 12.0815" stroke="#2F648E" stroke-width="1.5" stroke-linecap="round" stroke-linejoin="round"/>
</svg>
