<svg width="20" height="20" viewBox="0 0 20 20" fill="none" xmlns="http://www.w3.org/2000/svg">
<g clip-path="url(#clip0_1549_7393)">
<path d="M9.375 2.50094C9.54076 2.50094 9.69973 2.56678 9.81694 2.68399C9.93415 2.8012 10 2.96018 10 3.12594C10 3.2917 9.93415 3.45067 9.81694 3.56788C9.69973 3.68509 9.54076 3.75094 9.375 3.75094H5.625C5.12772 3.75094 4.65081 3.94848 4.29917 4.30011C3.94754 4.65174 3.75 5.12866 3.75 5.62594V14.3759C3.75 14.8732 3.94754 15.3501 4.29917 15.7018C4.65081 16.0534 5.12772 16.2509 5.625 16.2509H14.375C14.8723 16.2509 15.3492 16.0534 15.7008 15.7018C16.0525 15.3501 16.25 14.8732 16.25 14.3759V11.8759C16.25 11.7102 16.3158 11.5512 16.4331 11.434C16.5503 11.3168 16.7092 11.2509 16.875 11.2509C17.0408 11.2509 17.1997 11.3168 17.3169 11.434C17.4342 11.5512 17.5 11.7102 17.5 11.8759V14.3759C17.5 15.2047 17.1708 15.9996 16.5847 16.5856C15.9987 17.1717 15.2038 17.5009 14.375 17.5009H5.625C4.7962 17.5009 4.00134 17.1717 3.41529 16.5856C2.82924 15.9996 2.5 15.2047 2.5 14.3759V5.62594C2.5 4.79713 2.82924 4.00228 3.41529 3.41623C4.00134 2.83018 4.7962 2.50094 5.625 2.50094H9.375ZM13.475 1.31344C13.5802 1.26203 13.6978 1.24122 13.8142 1.25338C13.9307 1.26553 14.0414 1.31016 14.1337 1.38219L19.7587 5.75719C19.834 5.81561 19.8949 5.89047 19.9369 5.97604C19.9788 6.06162 20.0006 6.15565 20.0006 6.25094C20.0006 6.34622 19.9788 6.44025 19.9369 6.52583C19.8949 6.6114 19.834 6.68626 19.7587 6.74469L14.1337 11.1197C14.0414 11.1916 13.9307 11.236 13.8142 11.2481C13.6978 11.2601 13.5804 11.2392 13.4752 11.1877C13.3701 11.1363 13.2815 11.0563 13.2196 10.957C13.1577 10.8577 13.1249 10.743 13.125 10.6259V8.78219C10.335 9.06969 8.595 11.2484 7.63 13.0309L7.43375 13.4059C7.37069 13.5318 7.26701 13.6326 7.13949 13.6922C7.01198 13.7517 6.86809 13.7665 6.73113 13.7341C6.59417 13.7017 6.47216 13.624 6.38484 13.5137C6.29752 13.4033 6.25001 13.2667 6.25 13.1259C6.25 10.5309 6.8975 8.19969 8.17125 6.50094C9.34375 4.93844 11.0287 3.94219 13.125 3.77719V1.87594C13.1248 1.7588 13.1575 1.64395 13.2193 1.5445C13.2812 1.44504 13.3698 1.36498 13.475 1.31344Z" fill="#2F648E"/>
</g>
<defs>
<clipPath id="clip0_1549_7393">
<rect width="20" height="20" fill="white"/>
</clipPath>
</defs>
</svg>
