<svg width="20" height="20" viewBox="0 0 20 20" fill="none" xmlns="http://www.w3.org/2000/svg">
<path d="M18.7979 8.59805C18.7161 8.58477 18.6332 8.57864 18.5504 8.57972H4.44077L4.74844 8.43662C5.04917 8.29428 5.32275 8.10056 5.55694 7.86422L9.51363 3.90754C10.0347 3.41009 10.1223 2.60985 9.72112 2.01148C9.25422 1.37384 8.35882 1.23539 7.72114 1.70229C7.66962 1.74003 7.62065 1.78118 7.57464 1.82545L0.419694 8.98039C-0.139465 9.53893 -0.139957 10.445 0.418576 11.0041C0.418933 11.0045 0.419336 11.0049 0.419694 11.0052L7.57464 18.1602C8.13425 18.7182 9.04029 18.717 9.59837 18.1574C9.64228 18.1133 9.68329 18.0665 9.72112 18.0171C10.1223 17.4187 10.0347 16.6185 9.51363 16.121L5.5641 12.1572C5.35415 11.947 5.11276 11.7708 4.84861 11.6349L4.41931 11.4417H18.4716C19.2026 11.4688 19.844 10.9582 19.9813 10.2397C20.1078 9.45955 19.578 8.7246 18.7979 8.59805Z" fill="black"/>
</svg>
